Coordinates
version=1
nRows=8
nColumns=63
inDegrees=yes

Units are S.I. units (second, meters, Newtons, ...)
If the header above contains a line with 'inDegrees', this indicates whether rotational values are in degrees (yes) or radians (no).

endheader
time	pelvis_tilt	pelvis_list	pelvis_rotation	pelvis_tx	pelvis_ty	pelvis_tz	hip_flexion_r	hip_adduction_r	hip_rotation_r	knee_angle_r	knee_angle_r_beta	ankle_angle_r	subtalar_angle_r	mtp_angle_r	hip_flexion_l	hip_adduction_l	hip_rotation_l	knee_angle_l	knee_angle_l_beta	ankle_angle_l	subtalar_angle_l	mtp_angle_l	L5_S1_Flex_Ext	L5_S1_Lat_Bending	L5_S1_axial_rotation	L4_L5_Flex_Ext	L4_L5_Lat_Bending	L4_L5_axial_rotation	L3_L4_Flex_Ext	L3_L4_Lat_Bending	L3_L4_axial_rotation	L2_L3_Flex_Ext	L2_L3_Lat_Bending	L2_L3_axial_rotation	L1_L2_Flex_Ext	L1_L2_Lat_Bending	L1_L2_axial_rotation	L1_T12_Flex_Ext	L1_T12_Lat_Bending	L1_T12_axial_rotation	Abs_r3	Abs_r2	Abs_r1	Abs_t1	Abs_t2	neck_flexion	neck_bending	neck_rotation	arm_flex_r	arm_add_r	arm_rot_r	elbow_flex_r	pro_sup_r	wrist_flex_r	wrist_dev_r	arm_flex_l	arm_add_l	arm_rot_l	elbow_flex_l	pro_sup_l	wrist_flex_l	wrist_dev_l
      2.98333333	     -2.23757851	     -1.52451375	     96.82905435	      0.44415591	      0.66779673	      1.05956723	      2.07699177	     -1.27367247	     -1.89200082	      4.64714490	      0.08110798	     25.23783803	     -0.40007925	      0.00000000	      6.18443233	     -0.71875591	     -9.92754921	     13.74381062	      0.23987475	     30.57592407	     14.51735987	      0.00000000	      0.32207228	     -0.21524699	      1.32518717	      0.59812044	     -0.28627850	      1.40801137	      0.52913256	     -0.52335154	      1.40801137	      0.36809641	     -0.52335154	      1.15953878	      0.29907632	     -0.43893167	      1.07671458	      0.18403210	     -0.33341759	      0.99389038	      2.30053012	     -2.43491703	      7.37029350	      0.00000000	      0.00000000	     27.13124466	      0.87918493	     -0.26033207	    190.59167899	   -173.69736620	    228.29489554	     36.86791548	     44.32295105	      4.96131648	     11.92441368	     25.22730664	     -3.72014085	     62.00763411	     36.66001553	     87.06102774	     -0.68647679	     -4.18533569
      3.00000000	     -2.37435844	     -1.29935975	     96.45289546	      0.44463807	      0.66879612	      1.05894423	      1.80014978	     -1.37101450	     -1.47476650	      4.64537251	      0.08107705	     25.09022846	     -0.37005014	      0.00000000	      5.69314822	     -0.61780021	    -10.17162359	     13.36678579	      0.23329442	     30.29731346	     14.38448284	      0.00000000	      0.31108006	     -0.23000081	      1.24007475	      0.57770678	     -0.30590108	      1.31757942	      0.51107343	     -0.55922397	      1.31757942	      0.35553340	     -0.55922397	      1.08506540	      0.28886894	     -0.46901765	      1.00756073	      0.17775115	     -0.35627126	      0.93005606	      2.22201377	     -2.60181518	      6.89692371	      0.00000000	      0.00000000	     26.88966855	      1.36092021	      0.14084168	    191.31867395	   -173.79077220	    230.32516051	     39.11531738	     33.32073310	      3.72489758	     11.62682054	     23.52897258	     -3.39442261	     57.90935038	     38.09769777	     78.81018889	      5.82398788	      1.56394844
      3.01666667	     -2.58843880	     -1.07712468	     96.14105280	      0.44507955	      0.66972457	      1.05819548	      1.47511587	     -1.54183066	     -0.93808399	      4.57554402	      0.07985831	     24.94321019	     -0.59190964	      0.00000000	      5.15267959	     -0.40505154	    -10.30981627	     12.94052892	      0.22585484	     29.91992987	     14.10068479	      0.00000000	      0.29839621	     -0.25613790	      1.20713313	      0.55415160	     -0.34066341	      1.28257895	      0.49023514	     -0.62277369	      1.28257895	      0.34103703	     -0.62277369	      1.05624149	      0.27709072	     -0.52231640	      0.98079567	      0.17050360	     -0.39675761	      0.90534985	      2.13141430	     -2.89748315	      6.71371232	      0.00000000	      0.00000000	     26.55845349	      1.64696458	      0.10764379	    190.95915425	   -173.80786375	    229.80701943	     41.54842188	     25.55635490	      1.31117956	     10.80138088	     22.92622207	     -3.48578261	     59.43271183	     39.46967729	     66.83075827	      7.85973498	      6.55968550
      3.03333333	     -2.80971085	     -0.88996914	     95.69446627	      0.44567025	      0.67064553	      1.05749053	      1.23957438	     -1.71921856	     -0.43801881	      4.54416418	      0.07931063	     24.80512984	     -0.68561848	      0.00000000	      4.59053647	     -0.16777166	    -10.46336656	     12.43224933	      0.21698368	     29.39357178	     13.66906851	      0.00000000	      0.28501921	     -0.28512904	      1.23827603	      0.52930917	     -0.37922163	      1.31566829	      0.46825805	     -0.69326275	      1.31566829	      0.32574845	     -0.69326275	      1.08349153	      0.26466883	     -0.58143514	      1.00609928	      0.16285997	     -0.44166489	      0.92870703	      2.03586368	     -3.22543675	      6.88691982	      0.00000000	      0.00000000	     26.12318539	      1.78619240	     -0.41023073	    190.32933151	   -173.45893588	    229.65566267	     43.78730630	     20.83944446	     -1.48984590	      8.49526549	     22.54073548	     -3.73999724	     61.96671712	     40.62254205	     60.27507544	      9.35519613	      9.26981323
      3.05000000	     -2.80986004	     -0.71829979	     95.54827385	      0.44546518	      0.67149635	      1.05661930	      0.99833994	     -1.72038552	     -0.23258369	      4.54704944	      0.07936098	     24.78008869	     -0.54066681	      0.00000000	      4.18997893	     -0.15747306	    -10.61916069	     12.21895805	      0.21326105	     29.08930489	     13.55409510	      0.00000000	      0.27597503	     -0.27983270	      1.17139494	      0.51251323	     -0.37217750	      1.24460712	      0.45339938	     -0.68038524	      1.24460712	      0.31541186	     -0.68038524	      1.02497057	      0.25627041	     -0.57063485	      0.95175839	      0.15769213	     -0.43346086	      0.87854620	      1.97126205	     -3.16552352	      6.51494723	      0.00000000	      0.00000000	     25.64541027	      1.81791384	     -0.53784766	    189.72307049	   -172.91237160	    229.69321780	     45.12508237	     20.60045479	     -1.49302670	      7.70275508	     21.55113292	     -4.15489724	     63.31763878	     41.92483699	     60.13855818	      9.90900290	      9.36768804
      3.06666667	     -3.01386150	     -0.54721914	     95.14090251	      0.44565361	      0.67247932	      1.05591475	      0.69487609	     -1.90318304	      0.46933434	      4.33127988	      0.07559509	     24.53142573	     -0.89428475	      0.00000000	      3.52173077	      0.19303390	     -9.89081705	     11.41737744	      0.19927083	     28.32139342	     12.32373552	      0.00000000	      0.26132215	     -0.30976944	      1.34212461	      0.48530136	     -0.41199336	      1.42600740	      0.42932615	     -0.75317342	      1.42600740	      0.29866508	     -0.75317342	      1.17435904	      0.24266375	     -0.63168184	      1.09047625	      0.14931947	     -0.47983286	      1.00659346	      1.86659796	     -3.50417386	      7.46449447	      0.00000000	      0.00000000	     25.15087261	      0.89779299	     -3.04702304	    189.16393149	   -171.47284944	    232.47569380	     47.90218682	     15.85201139	     -5.27695471	      2.59261041	     23.47391632	     -4.91816232	     73.72857465	     42.93149066	     52.18685727	      7.30288420	      6.48591510
      3.08333333	     -2.99169948	     -0.41989863	     94.78107464	      0.44550266	      0.67323717	      1.05538053	      0.54448829	     -1.89645867	      0.76109100	      4.28852071	      0.07484881	     24.47377671	     -0.70537367	      0.00000000	      3.04684186	      0.27839903	     -9.49264175	     10.89037112	      0.19007283	     27.83463813	     11.55086699	      0.00000000	      0.25038910	     -0.29869497	      1.42365719	      0.46499760	     -0.39726431	      1.51263577	      0.41136425	     -0.72624696	      1.51263577	      0.28616970	     -0.72624696	      1.24570005	      0.23251132	     -0.60909879	      1.15672147	      0.14307233	     -0.46267851	      1.06774290	      1.78850430	     -3.37889727	      7.91795422	      0.00000000	      0.00000000	     24.76240674	      0.11408450	     -4.20832115	    188.36282740	   -170.21555870	    233.17119183	     50.01551593	     17.50392803	     -5.17795546	      1.22581947	     24.10873736	     -5.69431813	     79.23966617	     44.50012791	     50.93340924	      5.00230622	      3.41468004
      3.10000000	     -2.97685808	     -0.31763584	     94.58056934	      0.44508336	      0.67376207	      1.05518886	      0.44949840	     -1.91045579	      0.88034577	      4.29329037	      0.07493205	     24.51468668	     -0.57967894	      0.00000000	      2.76839373	      0.31362473	     -9.58024598	     10.69951636	      0.18674179	     27.57073090	     11.50501431	      0.00000000	      0.24085337	     -0.28205579	      1.38763128	      0.44728878	     -0.37513420	      1.47435823	      0.39569799	     -0.68579044	      1.47435823	      0.27527131	     -0.68579044	      1.21417737	      0.22365644	     -0.57516816	      1.12745041	      0.13762361	     -0.43690441	      1.04072346	      1.72039150	     -3.19067146	      7.71758888	      0.00000000	      0.00000000	     24.43933479	     -0.11403485	     -4.23307249	    187.74533504	   -169.02435871	    233.63597607	     52.45635968	     18.06920023	     -4.47225653	      1.09407559	     23.66736339	     -6.79222161	     80.23194636	     46.24158867	     51.44898950	      5.24194925	      2.73466808
